<?xml version="1.0" encoding="UTF-8"?>
<!DOCTYPE svg PUBLIC "-//W3C//DTD SVG 1.1//EN" "http://www.w3.org/Graphics/SVG/1.1/DTD/svg11.dtd">
<svg xmlns="http://www.w3.org/2000/svg" version="1.1" width="937px" height="266px" style="shape-rendering:geometricPrecision; text-rendering:geometricPrecision; image-rendering:optimizeQuality; fill-rule:evenodd; clip-rule:evenodd" xmlns:xlink="http://www.w3.org/1999/xlink">
<g><path style="opacity:1" fill="#d73732" d="M 872.5,6.5 C 886.708,8.3861 900.708,11.2194 914.5,15C 916.877,16.9762 918.877,19.1429 920.5,21.5C 920.253,22.7133 919.586,23.38 918.5,23.5C 917.128,22.4884 915.795,21.4884 914.5,20.5C 913.571,19.6851 912.571,18.8518 911.5,18C 898.545,16.0041 885.545,14.5041 872.5,13.5C 869.947,11.0379 869.947,8.70452 872.5,6.5 Z"/></g>
<g><path style="opacity:0.788" fill="#b44543" d="M 872.5,6.5 C 877.649,5.94041 882.982,5.94041 888.5,6.5C 898.6,7.94063 908.266,10.774 917.5,15C 919.192,16.3073 920.525,17.8073 921.5,19.5C 923.469,24.3723 924.636,29.3723 925,34.5C 923.294,30.531 921.127,26.8643 918.5,23.5C 919.586,23.38 920.253,22.7133 920.5,21.5C 918.877,19.1429 916.877,16.9762 914.5,15C 900.708,11.2194 886.708,8.3861 872.5,6.5 Z"/></g>
<g><path style="opacity:0.502" fill="#9f4746" d="M 888.5,6.5 C 882.982,5.94041 877.649,5.94041 872.5,6.5C 869.947,8.70452 869.947,11.0379 872.5,13.5C 877.031,14.1036 881.365,15.437 885.5,17.5C 878.956,17.7584 872.789,16.4251 867,13.5C 865.994,7.17643 868.661,3.8431 875,3.5C 879.777,3.81934 884.277,4.81934 888.5,6.5 Z"/></g>
<g><path style="opacity:0.843" fill="#b73f3f" d="M 872.5,13.5 C 885.545,14.5041 898.545,16.0041 911.5,18C 912.571,18.8518 913.571,19.6851 914.5,20.5C 913.167,20.5 911.833,20.5 910.5,20.5C 902.158,19.5731 893.825,18.5731 885.5,17.5C 881.365,15.437 877.031,14.1036 872.5,13.5 Z"/></g>
<g><path style="opacity:0.69" fill="#913c3e" d="M 921.5,19.5 C 925.772,25.6193 929.106,32.286 931.5,39.5C 930.279,40.0283 929.113,40.695 928,41.5C 926.821,38.7399 924.988,36.7399 922.5,35.5C 920.617,28.6975 916.617,23.6975 910.5,20.5C 911.833,20.5 913.167,20.5 914.5,20.5C 915.795,21.4884 917.128,22.4884 918.5,23.5C 921.127,26.8643 923.294,30.531 925,34.5C 924.636,29.3723 923.469,24.3723 921.5,19.5 Z"/></g>
<g><path style="opacity:0.29" fill="#904343" d="M 679.5,30.5 C 677.328,31.8017 674.994,32.9683 672.5,34C 670.584,36.09 668.584,37.9233 666.5,39.5C 667.183,35.9807 669.183,33.4807 672.5,32C 674.677,30.7978 677.011,30.2978 679.5,30.5 Z"/></g>
<g><path style="opacity:0.078" fill="#9c4f4f" d="M 683.5,30.5 C 691.296,30.5661 697.629,33.5661 702.5,39.5C 696.29,34.9001 689.29,32.2334 681.5,31.5C 681.957,30.7025 682.624,30.3691 683.5,30.5 Z"/></g>
<g><path style="opacity:0.106" fill="#a05452" d="M 877.5,45.5 C 874.386,36.8746 870.72,28.3746 866.5,20C 860.824,19.1741 858.157,21.6741 858.5,27.5C 856.501,22.1031 858.501,18.7698 864.5,17.5C 867.094,18.5922 869.261,20.2589 871,22.5C 873.072,30.2134 875.239,37.88 877.5,45.5 Z"/></g>
<g><path style="opacity:0.682" fill="#783e44" d="M 922.5,35.5 C 924.988,36.7399 926.821,38.7399 928,41.5C 929.113,40.695 930.279,40.0283 931.5,39.5C 933.051,42.619 934.051,45.9524 934.5,49.5C 933.504,49.4142 932.671,49.7476 932,50.5C 930.39,48.4032 929.223,46.0698 928.5,43.5C 927.583,42.8728 926.583,42.5394 925.5,42.5C 924.695,40.0846 923.695,37.7513 922.5,35.5 Z"/></g>
<g><path style="opacity:0.961" fill="#b73f3a" d="M 79.5,40.5 C 101.071,39.6757 121.071,44.6757 139.5,55.5C 138.884,56.2022 138.884,57.2022 139.5,58.5C 126.938,51.5234 113.605,46.8568 99.5,44.5C 92.8333,43.1667 86.1667,41.8333 79.5,40.5 Z"/></g>
<g><path style="opacity:1" fill="#e5302a" d="M 99.5,44.5 C 113.605,46.8568 126.938,51.5234 139.5,58.5C 140.552,58.3505 141.552,58.5172 142.5,59C 146,63.8333 150.167,68 155,71.5C 158.722,76.7043 162.555,81.7043 166.5,86.5C 169.853,94.9324 173.353,103.266 177,111.5C 180.657,129.014 181.49,146.681 179.5,164.5C 177.593,178.943 172.927,192.276 165.5,204.5C 160.316,212.2 154.649,219.533 148.5,226.5C 144.095,228.408 140.429,231.241 137.5,235C 134.085,235.406 131.418,237.072 129.5,240C 127.212,240.822 124.878,241.489 122.5,242C 121.417,244.056 119.75,245.389 117.5,246C 108.19,248.454 98.69,250.287 89,251.5C 72.7453,251.339 56.5786,249.839 40.5,247C 37.7209,245.278 34.7209,244.111 31.5,243.5C 29.1952,242.213 26.8618,240.88 24.5,239.5C 23.8714,237.259 22.8714,235.259 21.5,233.5C 20.6295,230.888 19.9628,228.221 19.5,225.5C 20.9778,225.762 22.3112,225.429 23.5,224.5C 21.5352,223.708 19.5352,223.041 17.5,222.5C 16.8849,219.564 15.7183,216.897 14,214.5C 13.1667,162.163 13.3334,109.83 14.5,57.5C 16.3581,55.4759 18.0248,53.3092 19.5,51C 22.2746,49.7331 24.9413,48.2331 27.5,46.5C 29.0175,47.9108 30.3508,47.7441 31.5,46C 54.1052,43.2893 76.7719,42.7893 99.5,44.5 Z M 86.5,77.5 C 86.5,78.1667 86.8333,78.5 87.5,78.5C 107.158,81.4969 121.491,91.8302 130.5,109.5C 130.932,110.71 131.599,111.71 132.5,112.5C 138.871,131.098 140.204,150.098 136.5,169.5C 135.833,169.5 135.5,169.833 135.5,170.5C 129.572,192.76 115.572,207.094 93.5,213.5C 92.8333,213.5 92.5,213.833 92.5,214.5C 84.1823,215.407 75.849,215.573 67.5,215C 61.9576,214.651 57.7909,212.151 55,207.5C 53.8691,186.868 53.3691,166.202 53.5,145.5C 53.6667,126.833 53.8333,108.167 54,89.5C 54.5046,87.4817 55.0046,85.4817 55.5,83.5C 57.8707,80.6278 60.8707,78.7944 64.5,78C 71.8258,77.5003 79.1591,77.3337 86.5,77.5 Z"/></g>
<g><path style="opacity:1" fill="#e5302a" d="M 702.5,47.5 C 703.793,48.842 704.626,50.5087 705,52.5C 705.168,69.3384 705.668,86.005 706.5,102.5C 707.048,105.084 708.715,106.084 711.5,105.5C 711.468,103.381 712.468,102.048 714.5,101.5C 720.925,97.5936 727.259,93.4269 733.5,89C 747.497,83.3044 761.497,83.1377 775.5,88.5C 778.496,89.2703 781.163,90.6036 783.5,92.5C 783.369,93.3764 783.702,94.0431 784.5,94.5C 787.176,95.8378 789.842,97.1711 792.5,98.5C 793.853,99.5237 794.52,100.857 794.5,102.5C 798.274,103.306 800.774,105.639 802,109.5C 804.69,112.185 807.69,114.518 811,116.5C 811.333,118.5 811.667,120.5 812,122.5C 813.011,123.337 814.178,123.67 815.5,123.5C 815.339,127.844 816.839,131.511 820,134.5C 820.66,137.678 821.493,140.678 822.5,143.5C 823.568,156.478 823.734,169.478 823,182.5C 821.592,189.718 819.592,196.718 817,203.5C 815.77,206.732 813.77,209.399 811,211.5C 810.14,215.494 808.64,219.161 806.5,222.5C 805.662,222.842 805.328,223.508 805.5,224.5C 801.036,228.463 796.702,232.63 792.5,237C 786.769,240.525 781.103,244.025 775.5,247.5C 771.796,249.091 767.796,249.924 763.5,250C 762.328,250.419 761.328,251.085 760.5,252C 750.833,252.667 741.167,252.667 731.5,252C 725.416,249.378 719.082,247.378 712.5,246C 708.816,242.543 704.483,240.21 699.5,239C 695.639,233.806 691.139,229.306 686,225.5C 684.724,219.939 681.724,215.606 677,212.5C 677.013,208.876 675.68,205.876 673,203.5C 672.172,199.534 671.672,195.534 671.5,191.5C 670.212,141.763 670.212,91.7635 671.5,41.5C 675.722,41.2627 679.889,41.596 684,42.5C 686.637,41.8994 687.804,40.2327 687.5,37.5C 684.183,38.2209 680.849,38.3876 677.5,38C 676.167,37.3333 676.167,36.6667 677.5,36C 684.762,34.1928 691.095,35.6928 696.5,40.5C 695.349,41.731 694.183,41.731 693,40.5C 691.642,48.3296 693.475,49.3296 698.5,43.5C 699.667,45.0792 701,46.4125 702.5,47.5 Z M 782.5,159.5 C 784.567,177.017 780.734,193.017 771,207.5C 767.6,210.414 764.1,213.08 760.5,215.5C 748.761,218.8 737.428,217.8 726.5,212.5C 720.343,207.484 715.843,201.151 713,193.5C 707.36,176.784 707.36,160.117 713,143.5C 720.941,124.504 735.108,117.004 755.5,121C 764.939,122.779 771.773,127.945 776,136.5C 779.26,143.874 781.426,151.541 782.5,159.5 Z"/></g>
<g><path style="opacity:0.353" fill="#ba4744" d="M 877.5,45.5 C 879.283,49.6127 880.616,53.946 881.5,58.5C 879.189,55.6997 877.189,52.6997 875.5,49.5C 873.551,40.5004 870.551,31.8338 866.5,23.5C 863.855,21.9061 862.188,22.5727 861.5,25.5C 862.297,29.7041 864.131,33.3708 867,36.5C 867.497,38.8098 867.663,41.1432 867.5,43.5C 868.371,46.1123 869.037,48.779 869.5,51.5C 864.775,44.0467 861.109,36.0467 858.5,27.5C 858.157,21.6741 860.824,19.1741 866.5,20C 870.72,28.3746 874.386,36.8746 877.5,45.5 Z"/></g>
<g><path style="opacity:1" fill="#df3330" d="M 875.5,49.5 C 875.162,52.1569 875.829,54.4902 877.5,56.5C 876.998,57.521 876.332,57.6877 875.5,57C 872.565,53.2954 870.565,49.1288 869.5,44.5C 868.817,44.1373 868.15,43.8039 867.5,43.5C 867.663,41.1432 867.497,38.8098 867,36.5C 864.131,33.3708 862.297,29.7041 861.5,25.5C 862.188,22.5727 863.855,21.9061 866.5,23.5C 870.551,31.8338 873.551,40.5004 875.5,49.5 Z"/></g>
<g><path style="opacity:0.459" fill="#644547" d="M 925.5,42.5 C 926.583,42.5394 927.583,42.8728 928.5,43.5C 929.223,46.0698 930.39,48.4032 932,50.5C 932.671,49.7476 933.504,49.4142 934.5,49.5C 935.167,50.5 935.833,51.5 936.5,52.5C 936.5,54.8333 936.5,57.1667 936.5,59.5C 934.983,59.4894 933.816,58.8228 933,57.5C 930.398,52.5137 927.898,47.5137 925.5,42.5 Z"/></g>
<g><path style="opacity:0.361" fill="#a74c4e" d="M 869.5,51.5 C 872.894,56.7489 876.561,61.9156 880.5,67C 883.268,68.7153 886.268,69.882 889.5,70.5C 891.067,70.523 892.4,70.023 893.5,69C 890.446,66.8061 887.112,65.1395 883.5,64C 882.536,62.2745 881.869,60.4412 881.5,58.5C 885.812,63.8253 891.478,66.8253 898.5,67.5C 900.922,69.268 903.588,70.768 906.5,72C 902.644,72.1773 898.977,72.6773 895.5,73.5C 881.672,72.3438 873.006,65.0105 869.5,51.5 Z"/></g>
<g><path style="opacity:0.925" fill="#c94040" d="M 867.5,43.5 C 868.15,43.8039 868.817,44.1373 869.5,44.5C 870.565,49.1288 872.565,53.2954 875.5,57C 876.332,57.6877 876.998,57.521 877.5,56.5C 875.829,54.4902 875.162,52.1569 875.5,49.5C 877.189,52.6997 879.189,55.6997 881.5,58.5C 881.869,60.4412 882.536,62.2745 883.5,64C 887.112,65.1395 890.446,66.8061 893.5,69C 892.4,70.023 891.067,70.523 889.5,70.5C 886.268,69.882 883.268,68.7153 880.5,67C 876.561,61.9156 872.894,56.7489 869.5,51.5C 869.037,48.779 868.371,46.1123 867.5,43.5 Z"/></g>
<g><path style="opacity:0.851" fill="#ca3b3c" d="M 702.5,43.5 C 703.885,44.5736 705.051,45.9069 706,47.5C 706.5,65.8303 706.667,84.1636 706.5,102.5C 705.668,86.005 705.168,69.3384 705,52.5C 704.626,50.5087 703.793,48.842 702.5,47.5C 702.5,46.1667 702.5,44.8333 702.5,43.5 Z"/></g>
<g><path style="opacity:0.373" fill="#7c4648" d="M 898.5,67.5 C 906.959,69.1123 914.959,71.9457 922.5,76C 913.422,76.1526 904.422,75.3193 895.5,73.5C 898.977,72.6773 902.644,72.1773 906.5,72C 903.588,70.768 900.922,69.268 898.5,67.5 Z"/></g>
<g><path style="opacity:0.992" fill="#d23832" d="M 112.5,84.5 C 106.736,82.0841 101.069,79.5841 95.5,77C 93.1667,76.3333 90.8333,76.3333 88.5,77C 87.944,77.3826 87.6107,77.8826 87.5,78.5C 86.8333,78.5 86.5,78.1667 86.5,77.5C 76.9616,76.2065 67.2949,76.2065 57.5,77.5C 59.1209,75.8828 61.1209,74.7162 63.5,74C 69.3709,73.7688 75.2043,73.2688 81,72.5C 90.8158,74.3137 100.316,76.8137 109.5,80C 110.748,81.3997 111.748,82.8997 112.5,84.5 Z"/></g>
<g><path style="opacity:0.254" fill="#a23839" d="M 665.5,40.5 C 666.664,78.3311 666.831,116.331 666,154.5C 665.722,155.416 665.222,156.082 664.5,156.5C 664.421,117.829 664.754,79.162 665.5,40.5 Z"/></g>
<g><path style="opacity:0.047" fill="#a33f42" d="M 550.5,81.5 C 561.749,80.9647 572.749,82.298 583.5,85.5C 583.083,86.1239 582.416,86.4573 581.5,86.5C 571.165,83.894 560.832,82.2273 550.5,81.5 Z"/></g>
<g><path style="opacity:0.941" fill="#cf3838" d="M 774.5,85.5 C 774.557,86.609 774.89,87.609 775.5,88.5C 761.497,83.1377 747.497,83.3044 733.5,89C 727.259,93.4269 720.925,97.5936 714.5,101.5C 722.26,93.9359 731.26,88.1026 741.5,84C 745.097,83.0284 748.764,82.5284 752.5,82.5C 759.794,83.6848 767.128,84.6848 774.5,85.5 Z"/></g>
<g><path style="opacity:0.255" fill="#a14044" d="M 444.5,82.5 C 438.085,85.1069 431.418,87.1069 424.5,88.5C 430.695,85.2797 437.362,83.2797 444.5,82.5 Z"/></g>
<g><path style="opacity:0.984" fill="#ba393b" d="M 112.5,84.5 C 116.332,85.6547 119.332,87.988 121.5,91.5C 124.052,95.5761 126.886,99.5761 130,103.5C 130.5,105 131,106.5 131.5,108C 131.43,108.765 131.097,109.265 130.5,109.5C 121.491,91.8302 107.158,81.4969 87.5,78.5C 87.6107,77.8826 87.944,77.3826 88.5,77C 90.8333,76.3333 93.1667,76.3333 95.5,77C 101.069,79.5841 106.736,82.0841 112.5,84.5 Z"/></g>
<g><path style="opacity:1" fill="#e03330" d="M 702.5,43.5 C 702.5,44.8333 702.5,46.1667 702.5,47.5C 701,46.4125 699.667,45.0792 698.5,43.5C 693.475,49.3296 691.642,48.3296 693,40.5C 694.183,41.731 695.349,41.731 696.5,40.5C 691.095,35.6928 684.762,34.1928 677.5,36C 676.167,36.6667 676.167,37.3333 677.5,38C 680.849,38.3876 684.183,38.2209 687.5,37.5C 687.804,40.2327 686.637,41.8994 684,42.5C 679.889,41.596 675.722,41.2627 671.5,41.5C 670.212,91.7635 670.212,141.763 671.5,191.5C 669.891,188.851 669.057,185.851 669,182.5C 668.333,136.167 668.333,89.8333 669,43.5C 670.426,36.1894 674.926,32.8561 682.5,33.5C 690.545,34.1893 697.212,37.5226 702.5,43.5 Z"/></g>
<g><path style="opacity:0.502" fill="#aa3c3d" d="M 702.5,39.5 C 705.649,42.8045 707.483,46.8045 708,51.5C 708.333,68.8333 708.667,86.1667 709,103.5C 726.773,82.7648 748.607,76.7648 774.5,85.5C 767.128,84.6848 759.794,83.6848 752.5,82.5C 748.764,82.5284 745.097,83.0284 741.5,84C 731.26,88.1026 722.26,93.9359 714.5,101.5C 712.468,102.048 711.468,103.381 711.5,105.5C 708.715,106.084 707.048,105.084 706.5,102.5C 706.667,84.1636 706.5,65.8303 706,47.5C 705.051,45.9069 703.885,44.5736 702.5,43.5C 702.5,42.1667 702.5,40.8333 702.5,39.5 Z"/></g>
<g><path style="opacity:0.463" fill="#9b4243" d="M 139.5,55.5 C 164.356,71.386 178.689,94.0527 182.5,123.5C 179.898,115.559 177.231,107.559 174.5,99.5C 172.381,95.9748 170.547,92.3081 169,88.5C 168.292,87.6195 167.458,86.9528 166.5,86.5C 162.555,81.7043 158.722,76.7043 155,71.5C 150.167,68 146,63.8333 142.5,59C 141.552,58.5172 140.552,58.3505 139.5,58.5C 138.884,57.2022 138.884,56.2022 139.5,55.5 Z"/></g>
<g><path style="opacity:1" fill="#cc3a37" d="M 280.5,82.5 C 280.38,83.5862 279.713,84.2528 278.5,84.5C 273.357,85.0678 268.357,86.2345 263.5,88C 257.895,91.6184 251.895,94.2851 245.5,96C 243.918,98.0854 241.918,99.5854 239.5,100.5C 238.362,105.306 235.362,107.973 230.5,108.5C 233.087,106.08 235.087,103.246 236.5,100C 240.42,98.4017 244.086,96.4017 247.5,94C 248.823,93.1841 249.489,92.0174 249.5,90.5C 259.133,85.5076 269.466,82.841 280.5,82.5 Z"/></g>
<g><path style="opacity:0.106" fill="#9b4645" d="M 584.5,86.5 C 595.368,89.7624 604.368,95.7624 611.5,104.5C 606.68,100.523 601.68,96.6899 596.5,93C 592.247,91.0446 588.247,88.8779 584.5,86.5 Z"/></g>
<g><path style="opacity:1" fill="#e63029" d="M 281.5,81.5 C 290.599,83.2188 299.932,85.0522 309.5,87C 315.792,89.586 321.959,92.4193 328,95.5C 328.371,99.8712 330.704,102.205 335,102.5C 338.105,107.724 341.272,112.724 344.5,117.5C 345.294,125.15 343.461,126.15 339,120.5C 338.228,120.645 337.561,120.978 337,121.5C 335.872,119.655 335.372,117.655 335.5,115.5C 333.473,115.338 331.473,115.505 329.5,116C 330.76,117.814 330.76,119.647 329.5,121.5C 327.051,121.98 324.885,122.98 323,124.5C 323.095,127.994 323.595,131.494 324.5,135C 323.357,137.451 322.357,139.951 321.5,142.5C 326.614,145.654 326.448,148.654 321,151.5C 319.268,151.266 318.434,150.266 318.5,148.5C 319.061,140.813 319.228,133.146 319,125.5C 318.072,123.665 316.906,123.332 315.5,124.5C 311.906,123.553 309.239,121.553 307.5,118.5C 307.833,116.833 308.833,115.833 310.5,115.5C 311.842,117.005 313.508,117.672 315.5,117.5C 315.278,114.315 313.778,113.315 311,114.5C 308.867,113.745 307.2,112.412 306,110.5C 305.829,105.467 305.329,100.467 304.5,95.5C 303.507,100.12 303.173,104.786 303.5,109.5C 298.728,107.203 294.228,105.869 290,105.5C 288.933,106.191 287.766,106.691 286.5,107C 288.394,108.101 289.061,109.434 288.5,111C 292.028,111.089 295.362,111.756 298.5,113C 287.197,112.77 276.197,114.27 265.5,117.5C 263.606,118.945 261.94,120.612 260.5,122.5C 258.502,124.6 256.335,126.6 254,128.5C 253.069,130.459 252.236,132.459 251.5,134.5C 250.311,135.429 248.978,135.762 247.5,135.5C 247.821,141.026 247.488,146.36 246.5,151.5C 245.035,152.406 244.035,153.739 243.5,155.5C 237.61,156.961 236.944,159.795 241.5,164C 238.937,164.763 238.937,165.263 241.5,165.5C 241.738,163.522 243.071,161.855 245.5,160.5C 248.277,161.424 251.111,162.424 254,163.5C 260.819,162.227 267.652,162.227 274.5,163.5C 278.905,162.99 283.238,162.157 287.5,161C 291.5,160.333 295.5,160.333 299.5,161C 297,161.375 294.667,162.208 292.5,163.5C 291.284,162.998 290.117,162.665 289,162.5C 287.601,163.227 286.101,163.727 284.5,164C 285.672,164.419 286.672,165.085 287.5,166C 282.761,166.946 281.428,169.613 283.5,174C 282.991,175.169 282.158,176.002 281,176.5C 277.397,175.956 273.897,175.122 270.5,174C 265.5,173.333 260.5,173.333 255.5,174C 258.614,175.456 261.447,177.289 264,179.5C 265.537,178.886 266.87,178.886 268,179.5C 268.5,179 269,178.5 269.5,178C 274.5,177.333 279.5,177.333 284.5,178C 282.913,178.862 281.246,179.529 279.5,180C 285.914,180.129 292.247,180.796 298.5,182C 283.213,183.584 267.879,183.918 252.5,183C 249.808,180.368 250.141,178.034 253.5,176C 251.741,175.202 250.074,175.369 248.5,176.5C 247.278,179.089 245.278,179.923 242.5,179C 241.929,177.795 241.262,176.628 240.5,175.5C 239.109,177.61 238.442,179.943 238.5,182.5C 238.837,185.176 239.17,187.843 239.5,190.5C 241.262,190.643 242.929,190.309 244.5,189.5C 246.867,193.572 248.7,197.905 250,202.5C 251.159,205.493 253.325,207.16 256.5,207.5C 261.39,213.452 267.723,217.118 275.5,218.5C 275.5,219.5 275.5,220.5 275.5,221.5C 292.553,223.031 309.553,222.531 326.5,220C 328.844,219.163 330.844,217.829 332.5,216C 335.393,215.369 338.226,214.536 341,213.5C 342.567,214.856 344.4,215.523 346.5,215.5C 346.711,223.771 343.878,230.771 338,236.5C 337.51,237.793 337.343,239.127 337.5,240.5C 336.5,240.5 335.5,240.5 334.5,240.5C 334.5,241.833 334.5,243.167 334.5,244.5C 327.338,246.737 320.005,248.403 312.5,249.5C 310.887,250.427 309.221,251.261 307.5,252C 293.724,253.02 280.057,252.354 266.5,250C 261.686,247.59 256.686,245.757 251.5,244.5C 247.597,242.719 244.597,239.885 242.5,236C 239.111,234.26 235.778,232.427 232.5,230.5C 230.957,227.914 229.291,225.414 227.5,223C 226.552,222.517 225.552,222.351 224.5,222.5C 225.034,218.522 223.534,215.522 220,213.5C 217.736,207.395 215.069,201.395 212,195.5C 209.386,180.624 208.886,165.624 210.5,150.5C 213.436,139.076 217.436,128.076 222.5,117.5C 225.401,114.688 228.068,111.688 230.5,108.5C 235.362,107.973 238.362,105.306 239.5,100.5C 241.918,99.5854 243.918,98.0854 245.5,96C 251.895,94.2851 257.895,91.6184 263.5,88C 268.357,86.2345 273.357,85.0678 278.5,84.5C 279.713,84.2528 280.38,83.5862 280.5,82.5C 280.5,81.8333 280.833,81.5 281.5,81.5 Z"/></g>
<g><path style="opacity:1" fill="#d23837" d="M 444.5,82.5 C 445.5,82.5 446.5,82.5 447.5,82.5C 452.844,82.334 458.177,82.5006 463.5,83C 465.723,83.5662 467.723,84.3995 469.5,85.5C 461.493,85.3336 453.493,85.5003 445.5,86C 438.77,88.7658 431.77,90.4325 424.5,91C 420.867,94.8222 416.534,97.6555 411.5,99.5C 415.289,95.1177 419.622,91.4511 424.5,88.5C 431.418,87.1069 438.085,85.1069 444.5,82.5 Z"/></g>
<g><path style="opacity:1" fill="#d43934" d="M 63.5,40.5 C 68.8333,40.5 74.1667,40.5 79.5,40.5C 86.1667,41.8333 92.8333,43.1667 99.5,44.5C 76.7719,42.7893 54.1052,43.2893 31.5,46C 30.3508,47.7441 29.0175,47.9108 27.5,46.5C 24.9413,48.2331 22.2746,49.7331 19.5,51C 18.0248,53.3092 16.3581,55.4759 14.5,57.5C 13.3334,109.83 13.1667,162.163 14,214.5C 15.7183,216.897 16.8849,219.564 17.5,222.5C 19.5352,223.041 21.5352,223.708 23.5,224.5C 22.3112,225.429 20.9778,225.762 19.5,225.5C 19.9628,228.221 20.6295,230.888 21.5,233.5C 19.9833,230.465 17.8167,227.799 15,225.5C 13.6833,220.9 12.6833,216.234 12,211.5C 11.5,160.834 11.3333,110.168 11.5,59.5C 14.7125,52.4597 20.0458,47.6264 27.5,45C 39.819,43.7668 51.819,42.2668 63.5,40.5 Z"/></g>
<g><path style="opacity:0.91" fill="#b23f3d" d="M 447.5,82.5 C 472.35,78.6746 493.017,86.3413 509.5,105.5C 519.827,92.6679 533.16,85.0012 549.5,82.5C 543.906,84.6211 538.239,86.7878 532.5,89C 531.277,92.2226 528.944,93.8893 525.5,94C 523.495,96.8447 520.829,98.678 517.5,99.5C 513.925,106.919 508.925,108.253 502.5,103.5C 493.373,94.1026 482.373,88.1026 469.5,85.5C 467.723,84.3995 465.723,83.5662 463.5,83C 458.177,82.5006 452.844,82.334 447.5,82.5 Z"/></g>
<g><path style="opacity:1" fill="#ce3b38" d="M 550.5,81.5 C 560.832,82.2273 571.165,83.894 581.5,86.5C 582.416,86.4573 583.083,86.1239 583.5,85.5C 584.167,85.5 584.5,85.8333 584.5,86.5C 588.247,88.8779 592.247,91.0446 596.5,93C 601.68,96.6899 606.68,100.523 611.5,104.5C 611.5,105.833 611.5,107.167 611.5,108.5C 609.786,105.787 607.453,103.787 604.5,102.5C 601.777,100.796 599.444,98.6295 597.5,96C 578.729,84.8196 558.729,82.1529 537.5,88C 531.456,92.9513 525.122,97.4513 518.5,101.5C 516.235,107.952 511.902,110.119 505.5,108C 503.859,106.871 502.859,105.371 502.5,103.5C 508.925,108.253 513.925,106.919 517.5,99.5C 520.829,98.678 523.495,96.8447 525.5,94C 528.944,93.8893 531.277,92.2226 532.5,89C 538.239,86.7878 543.906,84.6211 549.5,82.5C 549.5,81.8333 549.833,81.5 550.5,81.5 Z"/></g>
<g><path style="opacity:1" fill="#e0322e" d="M 883.5,93.5 C 879.785,93.423 876.119,93.7564 872.5,94.5C 872.714,96.1439 872.38,97.6439 871.5,99C 872.449,103.086 873.116,107.253 873.5,111.5C 872.5,111.5 871.5,111.5 870.5,111.5C 869.551,148.82 869.218,186.153 869.5,223.5C 870.833,223.5 872.167,223.5 873.5,223.5C 873.261,225.467 873.594,227.301 874.5,229C 872.613,232.941 871.613,237.108 871.5,241.5C 875.347,241.9 877.68,243.9 878.5,247.5C 884.211,247.405 889.711,247.405 895,247.5C 895.308,246.692 895.808,246.025 896.5,245.5C 898.876,246.817 900.543,246.15 901.5,243.5C 900.833,242.167 900.167,240.833 899.5,239.5C 900.645,235.919 901.312,232.252 901.5,228.5C 901.62,195.312 901.454,161.979 901,128.5C 900.13,127.892 899.63,127.059 899.5,126C 902.165,121.586 903.165,116.753 902.5,111.5C 903.499,153.663 903.832,195.997 903.5,238.5C 903.817,241.572 903.484,244.572 902.5,247.5C 900.808,249.851 899.142,252.185 897.5,254.5C 897.5,255.167 897.167,255.5 896.5,255.5C 891.792,253.877 886.792,252.377 881.5,251C 879.102,249.476 876.769,247.976 874.5,246.5C 872.167,243.997 870.001,241.331 868,238.5C 866.581,192.183 866.081,145.85 866.5,99.5C 868.069,93.4097 872.069,90.743 878.5,91.5C 879.833,91.6667 881.167,91.8333 882.5,92C 883.056,92.3826 883.389,92.8826 883.5,93.5 Z"/></g>
<g><path style="opacity:1" fill="#e53129" d="M 883.5,93.5 C 887.57,94.3559 891.57,95.5226 895.5,97C 896.222,98.7505 897.222,100.251 898.5,101.5C 899.393,105.042 900.726,108.376 902.5,111.5C 903.165,116.753 902.165,121.586 899.5,126C 899.63,127.059 900.13,127.892 901,128.5C 901.454,161.979 901.62,195.312 901.5,228.5C 901.312,232.252 900.645,235.919 899.5,239.5C 900.167,240.833 900.833,242.167 901.5,243.5C 900.543,246.15 898.876,246.817 896.5,245.5C 895.808,246.025 895.308,246.692 895,247.5C 889.711,247.405 884.211,247.405 878.5,247.5C 877.68,243.9 875.347,241.9 871.5,241.5C 871.613,237.108 872.613,232.941 874.5,229C 873.594,227.301 873.261,225.467 873.5,223.5C 872.167,223.5 870.833,223.5 869.5,223.5C 869.218,186.153 869.551,148.82 870.5,111.5C 871.5,111.5 872.5,111.5 873.5,111.5C 873.116,107.253 872.449,103.086 871.5,99C 872.38,97.6439 872.714,96.1439 872.5,94.5C 876.119,93.7564 879.785,93.423 883.5,93.5 Z"/></g>
<g><path style="opacity:0.277" fill="#993b3a" d="M 63.5,40.5 C 51.819,42.2668 39.819,43.7668 27.5,45C 20.0458,47.6264 14.7125,52.4597 11.5,59.5C 11.1652,103.343 10.1652,147.01 8.5,190.5C 8.33334,149.165 8.50001,107.832 9,66.5C 8.96185,54.4011 14.7952,46.9011 26.5,44C 38.673,41.14 51.0063,39.9733 63.5,40.5 Z"/></g>
<g><path style="opacity:0.824" fill="#a93e3b" d="M 249.5,90.5 C 249.489,92.0174 248.823,93.1841 247.5,94C 244.086,96.4017 240.42,98.4017 236.5,100C 235.087,103.246 233.087,106.08 230.5,108.5C 228.068,111.688 225.401,114.688 222.5,117.5C 220.605,118.973 218.939,120.64 217.5,122.5C 224.478,108.188 235.145,97.5216 249.5,90.5 Z"/></g>
<g><path style="opacity:1" fill="#e5302a" d="M 604.5,102.5 C 604.357,104.262 604.691,105.929 605.5,107.5C 606.274,108.711 607.107,108.711 608,107.5C 608.304,109.441 609.137,111.107 610.5,112.5C 609.113,116.074 610.446,117.741 614.5,117.5C 616.354,123.562 618.521,129.562 621,135.5C 621.824,138.785 622.324,142.118 622.5,145.5C 621.538,176.821 621.204,208.154 621.5,239.5C 620.178,239.67 619.011,239.337 618,238.5C 617.833,236.167 617.667,233.833 617.5,231.5C 618.431,203.315 618.765,175.148 618.5,147C 618.238,144.453 617.738,141.953 617,139.5C 616.667,139.833 616.333,140.167 616,140.5C 616.151,174.653 615.318,208.653 613.5,242.5C 615.006,243.747 616.506,243.747 618,242.5C 618.494,244.134 618.66,245.801 618.5,247.5C 615.833,247.5 613.167,247.5 610.5,247.5C 604.723,247.394 599.389,246.061 594.5,243.5C 593.5,241.833 592.167,240.5 590.5,239.5C 589.074,235.239 587.907,230.906 587,226.5C 586.667,198.167 586.333,169.833 586,141.5C 585.08,138.899 584.413,136.232 584,133.5C 583.292,132.619 582.458,131.953 581.5,131.5C 581.5,129.167 581.5,126.833 581.5,124.5C 576.564,121.752 570.731,119.419 564,117.5C 541.522,112.708 528.188,121.375 524,143.5C 523.5,176.832 523.333,210.165 523.5,243.5C 522.426,245.279 521.093,246.946 519.5,248.5C 509.346,251.412 500.512,249.412 493,242.5C 490.453,240.027 488.953,237.027 488.5,233.5C 487.699,204.19 487.199,174.856 487,145.5C 486.722,144.584 486.222,143.918 485.5,143.5C 483.093,135.092 478.427,128.259 471.5,123C 470.563,122.308 469.897,122.475 469.5,123.5C 468.833,123.167 468.167,122.833 467.5,122.5C 467.244,120.224 465.91,119.057 463.5,119C 456.148,118.418 448.815,118.585 441.5,119.5C 439.288,120.645 436.955,121.645 434.5,122.5C 432.976,125.236 430.809,127.236 428,128.5C 427.811,133.357 426.811,138.024 425,142.5C 424.833,176.172 424.333,209.838 423.5,243.5C 418.756,249.353 412.756,250.853 405.5,248C 402.238,246.571 399.071,245.071 396,243.5C 394.198,240.27 392.698,236.937 391.5,233.5C 390.365,231.255 389.865,228.922 390,226.5C 391.88,227.93 393.38,227.596 394.5,225.5C 394.167,224.5 393.5,223.833 392.5,223.5C 391.708,198.169 391.042,172.836 390.5,147.5C 389.985,141.343 390.318,138.677 391.5,139.5C 392.93,139.421 394.264,139.754 395.5,140.5C 395.833,139.667 396.167,138.833 396.5,138C 394.92,130.219 395.586,122.719 398.5,115.5C 398.5,114.167 398.5,112.833 398.5,111.5C 399.583,111.461 400.583,111.127 401.5,110.5C 404.071,107.796 406.237,104.796 408,101.5C 408.816,100.177 409.983,99.5106 411.5,99.5C 416.534,97.6555 420.867,94.8222 424.5,91C 431.77,90.4325 438.77,88.7658 445.5,86C 453.493,85.5003 461.493,85.3336 469.5,85.5C 482.373,88.1026 493.373,94.1026 502.5,103.5C 502.859,105.371 503.859,106.871 505.5,108C 511.902,110.119 516.235,107.952 518.5,101.5C 525.122,97.4513 531.456,92.9513 537.5,88C 558.729,82.1529 578.729,84.8196 597.5,96C 599.444,98.6295 601.777,100.796 604.5,102.5 Z"/></g>
<g><path style="opacity:0.069" fill="#9f3f42" d="M 902.5,252.5 C 903.027,249.769 903.86,247.102 905,244.5C 905.831,200.998 905.665,157.665 904.5,114.5C 904.364,109.232 902.364,104.898 898.5,101.5C 897.222,100.251 896.222,98.7505 895.5,97C 891.57,95.5226 887.57,94.3559 883.5,93.5C 883.389,92.8826 883.056,92.3826 882.5,92C 881.167,91.8333 879.833,91.6667 878.5,91.5C 872.069,90.743 868.069,93.4097 866.5,99.5C 865.778,99.9175 865.278,100.584 865,101.5C 864.5,143.165 864.333,184.832 864.5,226.5C 865.051,229.807 865.384,233.14 865.5,236.5C 864.698,235.048 864.198,233.382 864,231.5C 863.333,187.5 863.333,143.5 864,99.5C 865.979,92.5303 870.646,88.8636 878,88.5C 893.991,89.4953 903.324,97.8287 906,113.5C 906.667,158.167 906.667,202.833 906,247.5C 905.303,249.584 904.136,251.251 902.5,252.5 Z"/></g>
<g><path style="opacity:0.278" fill="#b33a38" d="M 314.5,143.5 C 314.673,132.342 309.673,124.509 299.5,120C 290.197,117.002 280.864,116.835 271.5,119.5C 271.5,119.167 271.5,118.833 271.5,118.5C 272.842,117.207 274.509,116.374 276.5,116C 283.833,115.333 291.167,115.333 298.5,116C 299.623,117.044 300.956,117.71 302.5,118C 305.537,120.609 308.703,123.109 312,125.5C 313.347,130.557 314.847,135.557 316.5,140.5C 316.333,141.833 316.167,143.167 316,144.5C 315.617,143.944 315.117,143.611 314.5,143.5 Z"/></g>
<g><path style="opacity:0.733" fill="#a63f3f" d="M 774.5,85.5 C 796.831,92.3269 812.331,106.66 821,128.5C 827.169,144.503 829.003,160.836 826.5,177.5C 827.296,165.759 825.962,154.426 822.5,143.5C 822.664,140.813 822.497,138.146 822,135.5C 819.199,128.565 815.866,121.898 812,115.5C 804.899,110.236 799.065,103.903 794.5,96.5C 792.435,96.047 790.768,95.047 789.5,93.5C 787.604,92.5344 785.604,92.2011 783.5,92.5C 781.163,90.6036 778.496,89.2703 775.5,88.5C 774.89,87.609 774.557,86.609 774.5,85.5 Z"/></g>
<g><path style="opacity:1" fill="#e3312b" d="M 344.5,117.5 C 345.804,118.987 346.97,120.654 348,122.5C 352.251,132.696 353.584,143.363 352,154.5C 350.395,158.486 348.895,162.486 347.5,166.5C 341.633,171.168 335.3,175.334 328.5,179C 322.741,178.891 317.408,180.224 312.5,183C 292.219,184.956 271.886,185.956 251.5,186C 249.522,188.497 249.022,191.331 250,194.5C 252.393,198.725 254.56,203.058 256.5,207.5C 253.325,207.16 251.159,205.493 250,202.5C 248.7,197.905 246.867,193.572 244.5,189.5C 242.929,190.309 241.262,190.643 239.5,190.5C 239.17,187.843 238.837,185.176 238.5,182.5C 238.442,179.943 239.109,177.61 240.5,175.5C 241.262,176.628 241.929,177.795 242.5,179C 245.278,179.923 247.278,179.089 248.5,176.5C 250.074,175.369 251.741,175.202 253.5,176C 250.141,178.034 249.808,180.368 252.5,183C 267.879,183.918 283.213,183.584 298.5,182C 292.247,180.796 285.914,180.129 279.5,180C 281.246,179.529 282.913,178.862 284.5,178C 279.5,177.333 274.5,177.333 269.5,178C 269,178.5 268.5,179 268,179.5C 266.87,178.886 265.537,178.886 264,179.5C 261.447,177.289 258.614,175.456 255.5,174C 260.5,173.333 265.5,173.333 270.5,174C 273.897,175.122 277.397,175.956 281,176.5C 282.158,176.002 282.991,175.169 283.5,174C 281.428,169.613 282.761,166.946 287.5,166C 286.672,165.085 285.672,164.419 284.5,164C 286.101,163.727 287.601,163.227 289,162.5C 290.117,162.665 291.284,162.998 292.5,163.5C 294.667,162.208 297,161.375 299.5,161C 295.5,160.333 291.5,160.333 287.5,161C 283.238,162.157 278.905,162.99 274.5,163.5C 267.652,162.227 260.819,162.227 254,163.5C 251.111,162.424 248.277,161.424 245.5,160.5C 243.071,161.855 241.738,163.522 241.5,165.5C 238.937,165.263 238.937,164.763 241.5,164C 236.944,159.795 237.61,156.961 243.5,155.5C 244.035,153.739 245.035,152.406 246.5,151.5C 245.959,154.652 246.959,157.152 249.5,159C 259.5,159.667 269.5,159.667 279.5,159C 282.365,158.817 285.031,158.317 287.5,157.5C 287.5,157.167 287.5,156.833 287.5,156.5C 288.167,156.5 288.833,156.5 289.5,156.5C 294.179,156.666 298.845,156.499 303.5,156C 306.215,154.092 309.215,152.759 312.5,152C 314.498,149.561 314.831,147.061 313.5,144.5C 313.5,143.833 313.833,143.5 314.5,143.5C 315.117,143.611 315.617,143.944 316,144.5C 316.167,143.167 316.333,141.833 316.5,140.5C 314.847,135.557 313.347,130.557 312,125.5C 308.703,123.109 305.537,120.609 302.5,118C 300.956,117.71 299.623,117.044 298.5,116C 291.167,115.333 283.833,115.333 276.5,116C 274.509,116.374 272.842,117.207 271.5,118.5C 269.801,118.34 268.134,118.506 266.5,119C 264.609,120.442 262.609,121.609 260.5,122.5C 261.94,120.612 263.606,118.945 265.5,117.5C 276.197,114.27 287.197,112.77 298.5,113C 295.362,111.756 292.028,111.089 288.5,111C 289.061,109.434 288.394,108.101 286.5,107C 287.766,106.691 288.933,106.191 290,105.5C 294.228,105.869 298.728,107.203 303.5,109.5C 303.173,104.786 303.507,100.12 304.5,95.5C 305.329,100.467 305.829,105.467 306,110.5C 307.2,112.412 308.867,113.745 311,114.5C 313.778,113.315 315.278,114.315 315.5,117.5C 313.508,117.672 311.842,117.005 310.5,115.5C 308.833,115.833 307.833,116.833 307.5,118.5C 309.239,121.553 311.906,123.553 315.5,124.5C 316.906,123.332 318.072,123.665 319,125.5C 319.228,133.146 319.061,140.813 318.5,148.5C 318.434,150.266 319.268,151.266 321,151.5C 326.448,148.654 326.614,145.654 321.5,142.5C 322.357,139.951 323.357,137.451 324.5,135C 323.595,131.494 323.095,127.994 323,124.5C 324.885,122.98 327.051,121.98 329.5,121.5C 330.76,119.647 330.76,117.814 329.5,116C 331.473,115.505 333.473,115.338 335.5,115.5C 335.372,117.655 335.872,119.655 337,121.5C 337.561,120.978 338.228,120.645 339,120.5C 343.461,126.15 345.294,125.15 344.5,117.5 Z"/></g>
<g><path style="opacity:0.506" fill="#ac3c3b" d="M 467.5,122.5 C 454.858,117.993 443.691,120.326 434,129.5C 430.282,136.37 428.449,143.704 428.5,151.5C 427.252,150.666 426.585,149.333 426.5,147.5C 426.847,139.755 429.18,132.755 433.5,126.5C 436.579,124.508 439.246,122.175 441.5,119.5C 448.815,118.585 456.148,118.418 463.5,119C 465.91,119.057 467.244,120.224 467.5,122.5 Z"/></g>
<g><path style="opacity:0.224" fill="#9f4345" d="M 271.5,119.5 C 267.025,122.58 262.692,125.913 258.5,129.5C 260.035,125.041 263.035,121.875 267.5,120C 268.793,119.51 270.127,119.343 271.5,119.5 Z"/></g>
<g><path style="opacity:1" fill="#d23b39" d="M 783.5,92.5 C 785.604,92.2011 787.604,92.5344 789.5,93.5C 790.768,95.047 792.435,96.047 794.5,96.5C 799.065,103.903 804.899,110.236 812,115.5C 815.866,121.898 819.199,128.565 822,135.5C 822.497,138.146 822.664,140.813 822.5,143.5C 821.493,140.678 820.66,137.678 820,134.5C 816.839,131.511 815.339,127.844 815.5,123.5C 814.178,123.67 813.011,123.337 812,122.5C 811.667,120.5 811.333,118.5 811,116.5C 807.69,114.518 804.69,112.185 802,109.5C 800.774,105.639 798.274,103.306 794.5,102.5C 794.52,100.857 793.853,99.5237 792.5,98.5C 789.842,97.1711 787.176,95.8378 784.5,94.5C 783.702,94.0431 783.369,93.3764 783.5,92.5 Z"/></g>
<g><path style="opacity:0.635" fill="#a93f40" d="M 424.5,88.5 C 419.622,91.4511 415.289,95.1177 411.5,99.5C 409.983,99.5106 408.816,100.177 408,101.5C 406.237,104.796 404.071,107.796 401.5,110.5C 400.583,111.127 399.583,111.461 398.5,111.5C 396.913,113.214 395.579,115.214 394.5,117.5C 392.662,122.202 390.829,126.869 389,131.5C 388.005,136.453 387.338,141.453 387,146.5C 386.617,147.056 386.117,147.389 385.5,147.5C 385.925,126.692 393.925,109.525 409.5,96C 414.285,92.9406 419.285,90.4406 424.5,88.5 Z"/></g>
<g><path style="opacity:0.619" fill="#b42e28" d="M 86.5,77.5 C 79.1591,77.3337 71.8258,77.5003 64.5,78C 60.8707,78.7944 57.8707,80.6278 55.5,83.5C 54.0337,84.347 53.2004,85.6803 53,87.5C 52.5,125.499 52.3333,163.499 52.5,201.5C 51.1759,161.961 51.1759,122.294 52.5,82.5C 53.1894,79.8106 54.856,78.1439 57.5,77.5C 67.2949,76.2065 76.9616,76.2065 86.5,77.5 Z"/></g>
<g><path style="opacity:0.936" fill="#c63533" d="M 866.5,99.5 C 866.081,145.85 866.581,192.183 868,238.5C 870.001,241.331 872.167,243.997 874.5,246.5C 871.236,245.073 868.736,242.739 867,239.5C 866.95,234.873 866.117,230.54 864.5,226.5C 864.333,184.832 864.5,143.165 865,101.5C 865.278,100.584 865.778,99.9175 866.5,99.5 Z"/></g>
<g><path style="opacity:0.998" fill="#d33731" d="M 121.5,91.5 C 131.853,100.416 138.353,111.749 141,125.5C 141.5,126.667 142.333,127.5 143.5,128C 142.678,139.758 142.178,151.591 142,163.5C 140.81,167.381 140.143,171.381 140,175.5C 136.198,180.224 133.531,185.557 132,191.5C 131.667,191.167 131.333,190.833 131,190.5C 129.924,193.079 128.091,194.746 125.5,195.5C 128.111,191.049 130.944,186.716 134,182.5C 134.399,179.314 135.232,176.314 136.5,173.5C 136.48,172.274 136.147,171.274 135.5,170.5C 135.5,169.833 135.833,169.5 136.5,169.5C 137.496,169.586 138.329,169.252 139,168.5C 140.532,156.543 140.865,144.543 140,132.5C 138.211,124.886 135.711,118.219 132.5,112.5C 131.599,111.71 130.932,110.71 130.5,109.5C 131.097,109.265 131.43,108.765 131.5,108C 131,106.5 130.5,105 130,103.5C 126.886,99.5761 124.052,95.5761 121.5,91.5 Z"/></g>
<g><path style="opacity:0.932" fill="#c33633" d="M 166.5,86.5 C 167.458,86.9528 168.292,87.6195 169,88.5C 170.547,92.3081 172.381,95.9748 174.5,99.5C 177.231,107.559 179.898,115.559 182.5,123.5C 182.557,124.609 182.89,125.609 183.5,126.5C 182.833,137.341 182.167,148.341 181.5,159.5C 180.83,161.291 180.163,162.958 179.5,164.5C 181.49,146.681 180.657,129.014 177,111.5C 173.353,103.266 169.853,94.9324 166.5,86.5 Z"/></g>
<g><path style="opacity:0.966" fill="#d3393f" d="M 898.5,101.5 C 902.364,104.898 904.364,109.232 904.5,114.5C 904.832,156.003 904.499,197.337 903.5,238.5C 903.832,195.997 903.499,153.663 902.5,111.5C 900.726,108.376 899.393,105.042 898.5,101.5 Z"/></g>
<g><path style="opacity:0.698" fill="#a93e3e" d="M 313.5,144.5 C 314.831,147.061 314.498,149.561 312.5,152C 309.215,152.759 306.215,154.092 303.5,156C 298.845,156.499 294.179,156.666 289.5,156.5C 294.767,155.663 300.1,154.496 305.5,153C 309.932,151.658 312.599,148.825 313.5,144.5 Z"/></g>
<g><path style="opacity:0.071" fill="#873b2f" d="M 481.5,138.5 C 482.41,140.019 483.243,141.685 484,143.5C 484.828,158.339 484.661,173.006 483.5,187.5C 484.035,171.079 483.368,154.746 481.5,138.5 Z"/></g>
<g><path style="opacity:0.855" fill="#ca3731" d="M 581.5,131.5 C 577.761,129.598 574.761,126.765 572.5,123C 570.934,122.235 569.601,122.402 568.5,123.5C 567.5,122.833 566.5,122.167 565.5,121.5C 564.942,120.21 563.942,119.377 562.5,119C 555.785,118.289 549.118,118.622 542.5,120C 541.149,121.617 539.482,122.784 537.5,123.5C 536.873,124.417 536.539,125.417 536.5,126.5C 536.158,127.338 535.492,127.672 534.5,127.5C 533.5,127.5 532.5,127.5 531.5,127.5C 532.077,130.55 530.91,132.55 528,133.5C 527.667,135.167 527.333,136.833 527,138.5C 526.169,172.336 526.336,206.002 527.5,239.5C 527.672,240.492 527.338,241.158 526.5,241.5C 525.222,241.782 524.222,242.449 523.5,243.5C 523.333,210.165 523.5,176.832 524,143.5C 528.188,121.375 541.522,112.708 564,117.5C 570.731,119.419 576.564,121.752 581.5,124.5C 581.5,126.833 581.5,129.167 581.5,131.5 Z"/></g>
<g><path style="opacity:0.278" fill="#a53d3b" d="M 565.5,121.5 C 559.217,120.416 552.884,120.249 546.5,121C 542.689,122.07 539.356,123.903 536.5,126.5C 536.539,125.417 536.873,124.417 537.5,123.5C 539.482,122.784 541.149,121.617 542.5,120C 549.118,118.622 555.785,118.289 562.5,119C 563.942,119.377 564.942,120.21 565.5,121.5 Z"/></g>
<g><path style="opacity:1" fill="#d8332e" d="M 52.5,82.5 C 51.1759,122.294 51.1759,161.961 52.5,201.5C 52.3379,203.527 52.5045,205.527 53,207.5C 54.3717,208.91 55.205,210.577 55.5,212.5C 51.8076,212.305 49.9742,210.305 50,206.5C 49.3333,165.833 49.3333,125.167 50,84.5C 50.7083,83.6195 51.5416,82.9528 52.5,82.5 Z"/></g>
<g><path style="opacity:1" fill="#df322f" d="M 604.5,102.5 C 607.453,103.787 609.786,105.787 611.5,108.5C 611.762,110.564 612.929,111.897 615,112.5C 615.333,114.5 615.667,116.5 616,118.5C 617.385,119.551 618.385,120.884 619,122.5C 620.424,127.27 621.924,131.937 623.5,136.5C 623.667,172.168 623.5,207.835 623,243.5C 621.471,244.729 620.304,246.229 619.5,248C 616.304,248.805 613.304,248.638 610.5,247.5C 613.167,247.5 615.833,247.5 618.5,247.5C 618.66,245.801 618.494,244.134 618,242.5C 616.506,243.747 615.006,243.747 613.5,242.5C 615.318,208.653 616.151,174.653 616,140.5C 616.333,140.167 616.667,139.833 617,139.5C 617.738,141.953 618.238,144.453 618.5,147C 618.765,175.148 618.431,203.315 617.5,231.5C 617.667,233.833 617.833,236.167 618,238.5C 619.011,239.337 620.178,239.67 621.5,239.5C 621.204,208.154 621.538,176.821 622.5,145.5C 622.324,142.118 621.824,138.785 621,135.5C 618.521,129.562 616.354,123.562 614.5,117.5C 610.446,117.741 609.113,116.074 610.5,112.5C 609.137,111.107 608.304,109.441 608,107.5C 607.107,108.711 606.274,108.711 605.5,107.5C 604.691,105.929 604.357,104.262 604.5,102.5 Z"/></g>
<g><path style="opacity:0.439" fill="#a43c39" d="M 217.5,122.5 C 216.725,126.99 215.225,131.323 213,135.5C 204.41,164.084 206.577,191.75 219.5,218.5C 209.972,204.243 205.305,188.409 205.5,171C 205.518,153.716 209.518,137.549 217.5,122.5 Z"/></g>
<g><path style="opacity:0.043" fill="#97423f" d="M 256.5,132.5 C 252.351,139.896 250.351,147.896 250.5,156.5C 262.833,156.5 275.167,156.5 287.5,156.5C 287.5,156.833 287.5,157.167 287.5,157.5C 274.829,157.667 262.162,157.5 249.5,157C 248.892,155.769 248.559,154.436 248.5,153C 249.829,146.353 251.662,139.853 254,133.5C 254.671,132.748 255.504,132.414 256.5,132.5 Z"/></g>
<g><path style="opacity:0.247" fill="#b0403d" d="M 281.5,81.5 C 307.738,80.2919 328.904,89.9586 345,110.5C 354.347,126.056 357.014,142.723 353,160.5C 351.175,166.483 347.675,171.15 342.5,174.5C 344.112,171.869 345.779,169.202 347.5,166.5C 348.895,162.486 350.395,158.486 352,154.5C 353.584,143.363 352.251,132.696 348,122.5C 346.97,120.654 345.804,118.987 344.5,117.5C 341.272,112.724 338.105,107.724 335,102.5C 330.704,102.205 328.371,99.8712 328,95.5C 321.959,92.4193 315.792,89.586 309.5,87C 299.932,85.0522 290.599,83.2188 281.5,81.5 Z"/></g>
<g><path style="opacity:0.823" fill="#c93c37" d="M 271.5,118.5 C 271.5,118.833 271.5,119.167 271.5,119.5C 270.127,119.343 268.793,119.51 267.5,120C 263.035,121.875 260.035,125.041 258.5,129.5C 257.833,130.5 257.167,131.5 256.5,132.5C 255.504,132.414 254.671,132.748 254,133.5C 251.662,139.853 249.829,146.353 248.5,153C 248.559,154.436 248.892,155.769 249.5,157C 262.162,157.5 274.829,157.667 287.5,157.5C 285.031,158.317 282.365,158.817 279.5,159C 269.5,159.667 259.5,159.667 249.5,159C 246.959,157.152 245.959,154.652 246.5,151.5C 247.488,146.36 247.821,141.026 247.5,135.5C 248.978,135.762 250.311,135.429 251.5,134.5C 252.236,132.459 253.069,130.459 254,128.5C 256.335,126.6 258.502,124.6 260.5,122.5C 262.609,121.609 264.609,120.442 266.5,119C 268.134,118.506 269.801,118.34 271.5,118.5 Z"/></g>
<g><path style="opacity:1" fill="#dc342b" d="M 398.5,115.5 C 395.586,122.719 394.92,130.219 396.5,138C 396.167,138.833 395.833,139.667 395.5,140.5C 394.264,139.754 392.93,139.421 391.5,139.5C 390.318,138.677 389.985,141.343 390.5,147.5C 391.042,172.836 391.708,198.169 392.5,223.5C 393.5,223.833 394.167,224.5 394.5,225.5C 393.38,227.596 391.88,227.93 390,226.5C 389.865,228.922 390.365,231.255 391.5,233.5C 390.542,233.047 389.708,232.381 389,231.5C 386.755,199.14 387.088,166.806 390,134.5C 393.434,129.037 395.601,123.037 396.5,116.5C 397.183,116.137 397.85,115.804 398.5,115.5 Z"/></g>
<g><path style="opacity:0.298" fill="#9d3636" d="M 136.5,169.5 C 140.204,150.098 138.871,131.098 132.5,112.5C 135.711,118.219 138.211,124.886 140,132.5C 140.865,144.543 140.532,156.543 139,168.5C 138.329,169.252 137.496,169.586 136.5,169.5 Z"/></g>
<g><path style="opacity:0.31" fill="#a4322e" d="M 469.5,123.5 C 469.897,122.475 470.563,122.308 471.5,123C 478.427,128.259 483.093,135.092 485.5,143.5C 485.827,164.742 485.494,185.909 484.5,207C 486.454,215.566 487.12,224.399 486.5,233.5C 485.732,232.737 485.232,231.737 485,230.5C 483.823,216.19 483.323,201.857 483.5,187.5C 484.661,173.006 484.828,158.339 484,143.5C 483.243,141.685 482.41,140.019 481.5,138.5C 479.17,132.18 475.17,127.18 469.5,123.5 Z"/></g>
<g><path style="opacity:0.418" fill="#9b3a35" d="M 384.5,148.5 C 386.327,175.148 387.16,202.148 387,229.5C 387.422,231.355 387.922,233.189 388.5,235C 388.43,235.765 388.097,236.265 387.5,236.5C 386.514,232.887 385.681,229.221 385,225.5C 384.5,199.835 384.333,174.169 384.5,148.5 Z"/></g>
<g><path style="opacity:1" fill="#cb3c37" d="M 222.5,117.5 C 217.436,128.076 213.436,139.076 210.5,150.5C 208.886,165.624 209.386,180.624 212,195.5C 215.069,201.395 217.736,207.395 220,213.5C 223.534,215.522 225.034,218.522 224.5,222.5C 225.552,222.351 226.552,222.517 227.5,223C 229.291,225.414 230.957,227.914 232.5,230.5C 235.778,232.427 239.111,234.26 242.5,236C 244.597,239.885 247.597,242.719 251.5,244.5C 248.996,243.361 246.33,242.694 243.5,242.5C 233.521,236.521 225.521,228.521 219.5,218.5C 206.577,191.75 204.41,164.084 213,135.5C 215.225,131.323 216.725,126.99 217.5,122.5C 218.939,120.64 220.605,118.973 222.5,117.5 Z"/></g>
<g><path style="opacity:0.591" fill="#c93530" d="M 581.5,131.5 C 582.458,131.953 583.292,132.619 584,133.5C 584.413,136.232 585.08,138.899 586,141.5C 586.333,169.833 586.667,198.167 587,226.5C 587.907,230.906 589.074,235.239 590.5,239.5C 589.288,238.77 588.288,237.77 587.5,236.5C 586.847,232.765 586.014,229.099 585,225.5C 584.667,198.167 584.333,170.833 584,143.5C 583.443,139.406 582.61,135.406 581.5,131.5 Z"/></g>
<g><path style="opacity:0.671" fill="#a63b3a" d="M 183.5,126.5 C 186.869,155.679 181.369,183.012 167,208.5C 166.292,209.381 165.458,210.047 164.5,210.5C 164.833,208.5 165.167,206.5 165.5,204.5C 172.927,192.276 177.593,178.943 179.5,164.5C 180.163,162.958 180.83,161.291 181.5,159.5C 182.167,148.341 182.833,137.341 183.5,126.5 Z"/></g>
<g><path style="opacity:0.196" fill="#9c3c35" d="M 55.5,83.5 C 55.0046,85.4817 54.5046,87.4817 54,89.5C 53.8333,108.167 53.6667,126.833 53.5,145.5C 53.3691,166.202 53.8691,186.868 55,207.5C 57.7909,212.151 61.9576,214.651 67.5,215C 75.849,215.573 84.1823,215.407 92.5,214.5C 91.0484,215.302 89.3817,215.802 87.5,216C 79.5069,216.5 71.5069,216.666 63.5,216.5C 61.4727,216.662 59.4727,216.495 57.5,216C 56.1772,215.184 55.5106,214.017 55.5,212.5C 55.205,210.577 54.3717,208.91 53,207.5C 52.5045,205.527 52.3379,203.527 52.5,201.5C 52.3333,163.499 52.5,125.499 53,87.5C 53.2004,85.6803 54.0337,84.347 55.5,83.5 Z"/></g>
<g><path style="opacity:0.675" fill="#b83c37" d="M 347.5,166.5 C 345.779,169.202 344.112,171.869 342.5,174.5C 334.136,180.237 324.802,183.737 314.5,185C 293.87,187.376 273.204,188.376 252.5,188C 252.607,196.882 256.274,204.215 263.5,210C 267.23,212.193 270.897,214.36 274.5,216.5C 274.833,217.167 275.167,217.833 275.5,218.5C 267.723,217.118 261.39,213.452 256.5,207.5C 254.56,203.058 252.393,198.725 250,194.5C 249.022,191.331 249.522,188.497 251.5,186C 271.886,185.956 292.219,184.956 312.5,183C 317.408,180.224 322.741,178.891 328.5,179C 335.3,175.334 341.633,171.168 347.5,166.5 Z"/></g>
<g><path style="opacity:0.775" fill="#af3e3a" d="M 611.5,104.5 C 621.474,116.573 626.64,130.573 627,146.5C 627.825,178.238 627.658,209.905 626.5,241.5C 625.833,241.5 625.167,241.5 624.5,241.5C 624.832,206.329 624.498,171.329 623.5,136.5C 621.924,131.937 620.424,127.27 619,122.5C 618.385,120.884 617.385,119.551 616,118.5C 615.667,116.5 615.333,114.5 615,112.5C 612.929,111.897 611.762,110.564 611.5,108.5C 611.5,107.167 611.5,105.833 611.5,104.5 Z"/></g>
<g><path style="opacity:1" fill="#d03b37" d="M 767.5,123.5 C 769.827,123.247 771.827,123.914 773.5,125.5C 774.799,128.463 776.799,130.796 779.5,132.5C 785.989,153.111 787.156,174.111 783,195.5C 780.781,200.724 778.114,205.724 775,210.5C 771.659,213.666 767.826,216 763.5,217.5C 765.806,215.861 767.806,213.861 769.5,211.5C 772.472,209.359 774.972,206.692 777,203.5C 779.051,198.939 780.884,194.272 782.5,189.5C 783.302,186.551 783.636,183.551 783.5,180.5C 784.655,173.345 784.822,166.012 784,158.5C 782.336,151.519 780.67,144.519 779,137.5C 777.333,134.833 775.667,132.167 774,129.5C 771.31,127.973 769.143,125.973 767.5,123.5 Z"/></g>
<g><path style="opacity:0.722" fill="#9a3e3d" d="M 782.5,159.5 C 783.491,166.313 783.825,173.313 783.5,180.5C 783.636,183.551 783.302,186.551 782.5,189.5C 780.884,194.272 779.051,198.939 777,203.5C 774.972,206.692 772.472,209.359 769.5,211.5C 766.607,213.114 763.607,214.447 760.5,215.5C 764.1,213.08 767.6,210.414 771,207.5C 780.734,193.017 784.567,177.017 782.5,159.5 Z"/></g>
<g><path style="opacity:0.979" fill="#ce413a" d="M 623.5,136.5 C 624.498,171.329 624.832,206.329 624.5,241.5C 624.392,244.382 623.226,246.715 621,248.5C 619.527,250.007 617.693,250.674 615.5,250.5C 609.359,250.028 603.359,248.861 597.5,247C 596.29,245.961 595.29,244.794 594.5,243.5C 599.389,246.061 604.723,247.394 610.5,247.5C 613.304,248.638 616.304,248.805 619.5,248C 620.304,246.229 621.471,244.729 623,243.5C 623.5,207.835 623.667,172.168 623.5,136.5 Z"/></g>
<g><path style="opacity:0.677" fill="#b23138" d="M 904.5,114.5 C 905.665,157.665 905.831,200.998 905,244.5C 903.86,247.102 903.027,249.769 902.5,252.5C 901.365,254.213 899.698,254.88 897.5,254.5C 899.142,252.185 900.808,249.851 902.5,247.5C 903.484,244.572 903.817,241.572 903.5,238.5C 904.499,197.337 904.832,156.003 904.5,114.5 Z"/></g>
<g><path style="opacity:0.267" fill="#973d3c" d="M 826.5,180.5 C 825.436,188.757 823.436,196.757 820.5,204.5C 819.957,204.44 819.624,204.107 819.5,203.5C 821.704,195.658 824.037,187.992 826.5,180.5 Z"/></g>
<g><path style="opacity:0.92" fill="#b63e3d" d="M 767.5,123.5 C 769.143,125.973 771.31,127.973 774,129.5C 775.667,132.167 777.333,134.833 779,137.5C 780.67,144.519 782.336,151.519 784,158.5C 784.822,166.012 784.655,173.345 783.5,180.5C 783.825,173.313 783.491,166.313 782.5,159.5C 781.426,151.541 779.26,143.874 776,136.5C 771.773,127.945 764.939,122.779 755.5,121C 735.108,117.004 720.941,124.504 713,143.5C 707.36,160.117 707.36,176.784 713,193.5C 715.843,201.151 720.343,207.484 726.5,212.5C 726.937,214.074 727.937,215.241 729.5,216C 737.999,218.362 746.666,219.029 755.5,218C 757.315,217.243 758.981,216.41 760.5,215.5C 763.607,214.447 766.607,213.114 769.5,211.5C 767.806,213.861 765.806,215.861 763.5,217.5C 749.241,222.314 735.574,221.147 722.5,214C 718.569,210.404 715.402,206.237 713,201.5C 701.554,175.664 703.388,150.997 718.5,127.5C 723.272,125.931 727.272,123.098 730.5,119C 740.833,118.333 751.167,118.333 761.5,119C 764.177,119.814 766.177,121.314 767.5,123.5 Z"/></g>
<g><path style="opacity:0.188" fill="#a73c38" d="M 427.5,155.5 C 427.751,184.809 427.751,214.142 427.5,243.5C 426.167,214.167 426.167,184.833 427.5,155.5 Z"/></g>
<g><path style="opacity:0.875" fill="#c63936" d="M 822.5,143.5 C 825.962,154.426 827.296,165.759 826.5,177.5C 826.5,178.5 826.5,179.5 826.5,180.5C 824.037,187.992 821.704,195.658 819.5,203.5C 819.624,204.107 819.957,204.44 820.5,204.5C 820.5,205.167 820.167,205.5 819.5,205.5C 818.883,205.389 818.383,205.056 818,204.5C 817,206.833 816,209.167 815,211.5C 812.609,215.498 809.776,219.164 806.5,222.5C 808.64,219.161 810.14,215.494 811,211.5C 813.77,209.399 815.77,206.732 817,203.5C 819.592,196.718 821.592,189.718 823,182.5C 823.734,169.478 823.568,156.478 822.5,143.5 Z"/></g>
<g><path style="opacity:0.999" fill="#c83633" d="M 485.5,143.5 C 486.222,143.918 486.722,144.584 487,145.5C 487.199,174.856 487.699,204.19 488.5,233.5C 487.833,233.5 487.167,233.5 486.5,233.5C 487.12,224.399 486.454,215.566 484.5,207C 485.494,185.909 485.827,164.742 485.5,143.5 Z"/></g>
<g><path style="opacity:0.737" fill="#a5403f" d="M 135.5,170.5 C 136.147,171.274 136.48,172.274 136.5,173.5C 135.232,176.314 134.399,179.314 134,182.5C 130.944,186.716 128.111,191.049 125.5,195.5C 122.203,201.796 117.536,206.796 111.5,210.5C 105.702,211.636 100.035,213.303 94.5,215.5C 93.7025,215.043 93.3691,214.376 93.5,213.5C 115.572,207.094 129.572,192.76 135.5,170.5 Z"/></g>
<g><path style="opacity:0.376" fill="#ac3f41" d="M 819.5,205.5 C 813.44,221.602 803.107,234.268 788.5,243.5C 790.313,240.254 792.647,237.421 795.5,235C 800.456,232.882 803.789,229.382 805.5,224.5C 805.328,223.508 805.662,222.842 806.5,222.5C 809.776,219.164 812.609,215.498 815,211.5C 816,209.167 817,206.833 818,204.5C 818.383,205.056 818.883,205.389 819.5,205.5 Z"/></g>
<g><path style="opacity:0.914" fill="#c3403e" d="M 111.5,210.5 C 108.624,212.638 105.29,213.805 101.5,214C 100.449,215.385 99.1161,216.385 97.5,217C 90.8581,217.831 84.1915,218.331 77.5,218.5C 72.5629,218.7 67.8962,218.033 63.5,216.5C 71.5069,216.666 79.5069,216.5 87.5,216C 89.3817,215.802 91.0484,215.302 92.5,214.5C 92.5,213.833 92.8333,213.5 93.5,213.5C 93.3691,214.376 93.7025,215.043 94.5,215.5C 100.035,213.303 105.702,211.636 111.5,210.5 Z"/></g>
<g><path style="opacity:0.141" fill="#9e4545" d="M 726.5,212.5 C 737.428,217.8 748.761,218.8 760.5,215.5C 758.981,216.41 757.315,217.243 755.5,218C 746.666,219.029 737.999,218.362 729.5,216C 727.937,215.241 726.937,214.074 726.5,212.5 Z"/></g>
<g><path style="opacity:0.278" fill="#973c3c" d="M 164.5,210.5 C 161.31,217.026 156.976,222.692 151.5,227.5C 154.668,220.992 159.001,215.325 164.5,210.5 Z"/></g>
<g><path style="opacity:0.349" fill="#a7433f" d="M 337.5,211.5 C 337.631,212.376 337.298,213.043 336.5,213.5C 332.492,214.681 328.825,216.514 325.5,219C 308.761,221.038 292.095,220.871 275.5,218.5C 275.167,217.833 274.833,217.167 274.5,216.5C 296.038,221.627 317.038,219.96 337.5,211.5 Z"/></g>
<g><path style="opacity:0.851" fill="#c83e39" d="M 348.5,216.5 C 347.679,219.641 347.179,222.975 347,226.5C 344.945,229.935 343.445,233.602 342.5,237.5C 336.107,245.549 327.774,250.882 317.5,253.5C 316.903,252.861 316.07,252.528 315,252.5C 302.897,254.191 290.73,254.858 278.5,254.5C 277.167,254.5 275.833,254.5 274.5,254.5C 270.841,252.833 266.841,251.5 262.5,250.5C 258.589,248.715 254.922,246.715 251.5,244.5C 256.686,245.757 261.686,247.59 266.5,250C 280.057,252.354 293.724,253.02 307.5,252C 309.221,251.261 310.887,250.427 312.5,249.5C 320.005,248.403 327.338,246.737 334.5,244.5C 334.5,243.167 334.5,241.833 334.5,240.5C 335.5,240.5 336.5,240.5 337.5,240.5C 337.343,239.127 337.51,237.793 338,236.5C 343.878,230.771 346.711,223.771 346.5,215.5C 344.4,215.523 342.567,214.856 341,213.5C 338.226,214.536 335.393,215.369 332.5,216C 330.844,217.829 328.844,219.163 326.5,220C 309.553,222.531 292.553,223.031 275.5,221.5C 275.5,220.5 275.5,219.5 275.5,218.5C 292.095,220.871 308.761,221.038 325.5,219C 328.825,216.514 332.492,214.681 336.5,213.5C 337.298,213.043 337.631,212.376 337.5,211.5C 342.517,209.79 346.183,211.456 348.5,216.5 Z"/></g>
<g><path style="opacity:0.09" fill="#a54140" d="M 568.5,123.5 C 569.601,122.402 570.934,122.235 572.5,123C 574.761,126.765 577.761,129.598 581.5,131.5C 582.61,135.406 583.443,139.406 584,143.5C 584.333,170.833 584.667,198.167 585,225.5C 586.014,229.099 586.847,232.765 587.5,236.5C 588.288,237.77 589.288,238.77 590.5,239.5C 592.167,240.5 593.5,241.833 594.5,243.5C 595.29,244.794 596.29,245.961 597.5,247C 603.359,248.861 609.359,250.028 615.5,250.5C 617.693,250.674 619.527,250.007 621,248.5C 623.226,246.715 624.392,244.382 624.5,241.5C 625.167,241.5 625.833,241.5 626.5,241.5C 626.335,246.84 623.668,250.34 618.5,252C 610.119,252.991 602.119,251.657 594.5,248C 587.691,242.882 584.191,236.048 584,227.5C 583.667,201.5 583.333,175.5 583,149.5C 582.049,142.311 579.715,135.644 576,129.5C 573.914,126.906 571.414,124.906 568.5,123.5 Z"/></g>
<g><path style="opacity:0.067" fill="#9e3b38" d="M 534.5,127.5 C 530.935,132.969 528.769,138.969 528,145.5C 527.5,176.832 527.333,208.165 527.5,239.5C 526.336,206.002 526.169,172.336 527,138.5C 527.333,136.833 527.667,135.167 528,133.5C 530.91,132.55 532.077,130.55 531.5,127.5C 532.5,127.5 533.5,127.5 534.5,127.5 Z"/></g>
<g><path style="opacity:0.263" fill="#9f4443" d="M 348.5,216.5 C 349.703,224.542 347.703,231.542 342.5,237.5C 343.445,233.602 344.945,229.935 347,226.5C 347.179,222.975 347.679,219.641 348.5,216.5 Z"/></g>
<g><path style="opacity:0.873" fill="#c53b35" d="M 398.5,111.5 C 398.5,112.833 398.5,114.167 398.5,115.5C 397.85,115.804 397.183,116.137 396.5,116.5C 395.601,123.037 393.434,129.037 390,134.5C 387.088,166.806 386.755,199.14 389,231.5C 389.708,232.381 390.542,233.047 391.5,233.5C 392.698,236.937 394.198,240.27 396,243.5C 399.071,245.071 402.238,246.571 405.5,248C 412.756,250.853 418.756,249.353 423.5,243.5C 424.333,209.838 424.833,176.172 425,142.5C 426.811,138.024 427.811,133.357 428,128.5C 430.809,127.236 432.976,125.236 434.5,122.5C 436.955,121.645 439.288,120.645 441.5,119.5C 439.246,122.175 436.579,124.508 433.5,126.5C 429.18,132.755 426.847,139.755 426.5,147.5C 426.585,149.333 427.252,150.666 428.5,151.5C 428.567,152.959 428.234,154.292 427.5,155.5C 426.167,184.833 426.167,214.167 427.5,243.5C 427.5,244.167 427.167,244.5 426.5,244.5C 421.086,249.988 414.419,251.988 406.5,250.5C 397.791,248.986 391.458,244.319 387.5,236.5C 388.097,236.265 388.43,235.765 388.5,235C 387.922,233.189 387.422,231.355 387,229.5C 387.16,202.148 386.327,175.148 384.5,148.5C 384.5,147.833 384.833,147.5 385.5,147.5C 386.117,147.389 386.617,147.056 387,146.5C 387.338,141.453 388.005,136.453 389,131.5C 390.829,126.869 392.662,122.202 394.5,117.5C 395.579,115.214 396.913,113.214 398.5,111.5 Z"/></g>
<g><path style="opacity:0.235" fill="#a13a39" d="M 150.5,228.5 C 146.348,233.318 141.348,236.985 135.5,239.5C 138.29,235.88 141.623,232.713 145.5,230C 147.154,229.392 148.821,228.892 150.5,228.5 Z"/></g>
<g><path style="opacity:0.91" fill="#af3b38" d="M 11.5,59.5 C 11.3333,110.168 11.5,160.834 12,211.5C 12.6833,216.234 13.6833,220.9 15,225.5C 17.8167,227.799 19.9833,230.465 21.5,233.5C 22.8714,235.259 23.8714,237.259 24.5,239.5C 26.8618,240.88 29.1952,242.213 31.5,243.5C 32.347,244.966 33.6803,245.8 35.5,246C 36.2524,246.671 36.5858,247.504 36.5,248.5C 22.8795,243.377 14.3795,233.71 11,219.5C 9.9453,209.844 9.11197,200.178 8.5,190.5C 10.1652,147.01 11.1652,103.343 11.5,59.5 Z"/></g>
<g><path style="opacity:0.682" fill="#b83c3a" d="M 683.5,30.5 C 682.624,30.3691 681.957,30.7025 681.5,31.5C 689.29,32.2334 696.29,34.9001 702.5,39.5C 702.5,40.8333 702.5,42.1667 702.5,43.5C 697.212,37.5226 690.545,34.1893 682.5,33.5C 674.926,32.8561 670.426,36.1894 669,43.5C 668.333,89.8333 668.333,136.167 669,182.5C 669.057,185.851 669.891,188.851 671.5,191.5C 671.672,195.534 672.172,199.534 673,203.5C 675.68,205.876 677.013,208.876 677,212.5C 681.724,215.606 684.724,219.939 686,225.5C 691.139,229.306 695.639,233.806 699.5,239C 704.483,240.21 708.816,242.543 712.5,246C 719.082,247.378 725.416,249.378 731.5,252C 741.167,252.667 750.833,252.667 760.5,252C 761.328,251.085 762.328,250.419 763.5,250C 767.796,249.924 771.796,249.091 775.5,247.5C 779.399,247.369 782.732,246.036 785.5,243.5C 786.416,243.543 787.083,243.876 787.5,244.5C 757.677,261.03 728.343,260.197 699.5,242C 679.89,227.025 668.723,207.191 666,182.5C 665.537,173.826 665.037,165.159 664.5,156.5C 665.222,156.082 665.722,155.416 666,154.5C 666.831,116.331 666.664,78.3311 665.5,40.5C 665.5,39.8333 665.833,39.5 666.5,39.5C 668.584,37.9233 670.584,36.09 672.5,34C 674.994,32.9683 677.328,31.8017 679.5,30.5C 680.961,29.3143 682.295,29.3143 683.5,30.5 Z"/></g>
<g><path style="opacity:0.643" fill="#d03d3c" d="M 805.5,224.5 C 803.789,229.382 800.456,232.882 795.5,235C 792.647,237.421 790.313,240.254 788.5,243.5C 788.5,244.167 788.167,244.5 787.5,244.5C 787.083,243.876 786.416,243.543 785.5,243.5C 782.732,246.036 779.399,247.369 775.5,247.5C 781.103,244.025 786.769,240.525 792.5,237C 796.702,232.63 801.036,228.463 805.5,224.5 Z"/></g>
<g><path style="opacity:0.365" fill="#b43b3c" d="M 864.5,226.5 C 866.117,230.54 866.95,234.873 867,239.5C 868.736,242.739 871.236,245.073 874.5,246.5C 876.769,247.976 879.102,249.476 881.5,251C 886.792,252.377 891.792,253.877 896.5,255.5C 882.586,257.61 872.419,252.61 866,240.5C 865.51,239.207 865.343,237.873 865.5,236.5C 865.384,233.14 865.051,229.807 864.5,226.5 Z"/></g>
<g><path style="opacity:0.667" fill="#a93f40" d="M 243.5,242.5 C 246.33,242.694 248.996,243.361 251.5,244.5C 254.922,246.715 258.589,248.715 262.5,250.5C 266.841,251.5 270.841,252.833 274.5,254.5C 262.978,253.221 252.645,249.221 243.5,242.5 Z"/></g>
<g><path style="opacity:0.4" fill="#b34241" d="M 486.5,233.5 C 487.167,233.5 487.833,233.5 488.5,233.5C 488.953,237.027 490.453,240.027 493,242.5C 500.512,249.412 509.346,251.412 519.5,248.5C 521.093,246.946 522.426,245.279 523.5,243.5C 524.222,242.449 525.222,241.782 526.5,241.5C 524.767,250.946 519.1,254.446 509.5,252C 500.767,251.388 493.934,247.554 489,240.5C 487.589,238.35 486.755,236.016 486.5,233.5 Z"/></g>
<g><path style="opacity:0.545" fill="#a54745" d="M 39.5,250.5 C 39.9169,249.876 40.5836,249.543 41.5,249.5C 47.1509,250.415 52.8176,251.248 58.5,252C 59.056,252.383 59.3893,252.883 59.5,253.5C 52.6657,253.533 45.9991,252.533 39.5,250.5 Z"/></g>
<g><path style="opacity:0.486" fill="#ab4645" d="M 426.5,244.5 C 423.496,251.499 418.163,253.999 410.5,252C 408.942,251.79 407.609,251.29 406.5,250.5C 414.419,251.988 421.086,249.988 426.5,244.5 Z"/></g>
<g><path style="opacity:0.868" fill="#cb3e3a" d="M 165.5,204.5 C 165.167,206.5 164.833,208.5 164.5,210.5C 159.001,215.325 154.668,220.992 151.5,227.5C 151.5,228.167 151.167,228.5 150.5,228.5C 148.821,228.892 147.154,229.392 145.5,230C 141.623,232.713 138.29,235.88 135.5,239.5C 133.233,241.778 130.567,243.611 127.5,245C 122.393,247.536 117.06,249.369 111.5,250.5C 94.8477,251.499 78.5144,252.832 62.5,254.5C 61.609,253.89 60.609,253.557 59.5,253.5C 59.3893,252.883 59.056,252.383 58.5,252C 52.8176,251.248 47.1509,250.415 41.5,249.5C 40.5836,249.543 39.9169,249.876 39.5,250.5C 38.2905,250.068 37.2905,249.401 36.5,248.5C 36.5858,247.504 36.2524,246.671 35.5,246C 33.6803,245.8 32.347,244.966 31.5,243.5C 34.7209,244.111 37.7209,245.278 40.5,247C 56.5786,249.839 72.7453,251.339 89,251.5C 98.69,250.287 108.19,248.454 117.5,246C 119.75,245.389 121.417,244.056 122.5,242C 124.878,241.489 127.212,240.822 129.5,240C 131.418,237.072 134.085,235.406 137.5,235C 140.429,231.241 144.095,228.408 148.5,226.5C 154.649,219.533 160.316,212.2 165.5,204.5 Z"/></g>
<g><path style="opacity:0.468" fill="#a94641" d="M 111.5,250.5 C 105.491,252.712 99.1573,253.878 92.5,254C 82.5056,254.5 72.5056,254.666 62.5,254.5C 78.5144,252.832 94.8477,251.499 111.5,250.5 Z"/></g>
<g><path style="opacity:0.244" fill="#a5403b" d="M 317.5,253.5 C 304.39,255.506 291.39,255.84 278.5,254.5C 290.73,254.858 302.897,254.191 315,252.5C 316.07,252.528 316.903,252.861 317.5,253.5 Z"/></g>
</svg>
